<?xml version="1.0" standalone="no"?>
<!DOCTYPE svg PUBLIC "-//W3C//DTD SVG 20010904//EN"
 "http://www.w3.org/TR/2001/REC-SVG-20010904/DTD/svg10.dtd">
<svg version="1.0" xmlns="http://www.w3.org/2000/svg"
 width="736.000000pt" height="736.000000pt" viewBox="0 0 736.000000 736.000000"
 preserveAspectRatio="xMidYMid meet">
<metadata>
Created by potrace 1.11, written by Peter Selinger 2001-2013
</metadata>
<g transform="translate(0.000000,736.000000) scale(0.100000,-0.100000)"
fill="#000000" stroke="none">
<path d="M3291 6588 c-12 -24 -31 -59 -43 -78 -11 -19 -31 -54 -44 -77 -13
-23 -53 -92 -89 -153 -36 -61 -65 -115 -65 -119 0 -5 -8 -19 -18 -32 -11 -13
-32 -49 -49 -79 -16 -30 -42 -74 -56 -97 -15 -24 -27 -45 -27 -47 0 -3 -36
-66 -80 -142 -44 -75 -80 -138 -80 -140 0 -3 -27 -49 -60 -104 -33 -55 -60
-102 -60 -104 0 -3 -18 -35 -40 -71 -22 -36 -40 -68 -40 -71 0 -3 -8 -18 -18
-32 -11 -15 -35 -56 -55 -92 -19 -36 -65 -116 -101 -179 -36 -62 -66 -116 -66
-119 0 -3 -6 -13 -14 -21 -7 -9 -27 -41 -43 -71 -17 -30 -40 -72 -52 -92 -11
-21 -30 -53 -40 -71 -42 -75 -180 -314 -200 -347 -11 -19 -26 -46 -33 -60 -7
-14 -38 -68 -68 -120 -31 -52 -59 -102 -63 -110 -4 -8 -15 -28 -26 -45 -10
-16 -54 -93 -98 -170 -125 -219 -239 -417 -262 -455 -11 -19 -26 -46 -33 -60
-7 -14 -23 -43 -36 -64 -46 -74 -83 -141 -95 -168 -6 -16 -15 -28 -19 -28 -4
0 -8 -6 -8 -14 0 -8 -6 -21 -13 -28 -6 -7 -21 -31 -32 -53 -11 -22 -23 -42
-26 -45 -4 -3 -19 -30 -35 -60 -15 -30 -30 -57 -33 -60 -6 -5 -38 -63 -70
-125 -9 -16 -19 -32 -22 -35 -3 -3 -19 -30 -36 -60 -35 -65 -219 -388 -234
-410 -5 -8 -15 -26 -21 -40 -7 -14 -15 -27 -18 -30 -6 -6 -22 -34 -54 -95 -12
-22 -29 -51 -38 -65 -25 -39 -66 -112 -85 -150 -10 -19 -21 -37 -24 -40 -3 -3
-22 -36 -44 -75 -21 -38 -47 -82 -57 -98 -11 -15 -17 -33 -15 -40 4 -9 6 -9 6
1 1 6 10 12 20 12 11 0 21 3 23 8 2 4 30 21 63 38 63 33 116 62 275 149 132
73 204 112 285 155 39 20 86 46 105 57 20 11 71 39 115 63 44 24 93 50 110 60
16 9 71 39 120 66 50 27 104 56 120 65 17 9 50 27 75 40 25 13 51 29 58 36 8
7 18 11 23 8 5 -4 9 -2 9 3 0 5 8 12 18 14 16 4 121 164 156 235 6 13 14 23
19 23 4 0 7 5 7 10 0 8 95 171 140 240 6 8 18 30 27 48 9 17 20 32 25 32 4 0
8 5 8 11 0 9 66 126 87 155 7 9 13 19 45 76 7 12 19 28 26 36 6 7 12 20 12 28
0 8 4 14 8 14 5 0 17 18 27 40 10 22 22 40 27 40 4 0 8 4 8 9 0 5 117 204 260
441 143 237 260 435 260 441 0 5 5 9 10 9 6 0 10 7 10 15 0 8 4 15 9 15 5 0
11 8 14 18 7 19 23 47 122 207 37 61 77 126 88 145 11 19 27 47 36 62 9 14 37
61 63 105 l46 78 1 100 c0 55 0 123 0 150 0 28 0 100 0 160 0 126 0 157 -1
355 0 80 1 150 2 155 1 6 2 13 1 18 -3 10 -4 450 -1 462 1 6 2 15 0 20 -1 6
-2 110 -2 233 0 122 -1 222 -2 222 -1 0 -12 -19 -25 -42z"/>
<path d="M3395 5693 c1 -846 3 -941 17 -968 9 -17 39 -68 67 -114 28 -45 51
-87 51 -92 0 -5 5 -9 10 -9 6 0 10 -4 10 -9 0 -5 27 -53 60 -108 32 -54 72
-120 88 -148 16 -27 66 -113 112 -190 46 -77 88 -149 94 -160 6 -11 24 -39 39
-62 15 -24 27 -45 27 -48 0 -2 15 -28 33 -57 19 -29 45 -73 59 -98 14 -25 44
-75 67 -112 22 -37 41 -72 41 -78 0 -5 4 -10 8 -10 4 0 18 -19 30 -42 12 -24
30 -56 41 -73 70 -115 141 -238 141 -246 0 -5 5 -9 10 -9 6 0 10 -4 10 -9 0
-5 23 -46 50 -91 28 -45 50 -82 50 -84 0 -3 218 -370 227 -382 8 -10 20 -31
53 -90 46 -81 70 -110 106 -130 21 -11 56 -31 77 -42 35 -21 52 -31 145 -83
20 -12 55 -32 77 -44 49 -27 103 -57 218 -124 49 -28 92 -51 97 -51 5 0 10 -3
12 -7 2 -5 23 -18 48 -31 25 -12 52 -27 60 -32 48 -31 263 -150 271 -150 5 0
9 -4 9 -10 0 -5 4 -10 9 -10 5 0 48 -23 96 -50 48 -28 88 -50 90 -50 2 0 36
-19 77 -43 40 -24 80 -47 88 -51 8 -4 24 -12 35 -19 11 -7 43 -25 70 -41 28
-16 64 -37 82 -48 l31 -19 -11 26 c-7 13 -15 25 -19 25 -5 0 -8 5 -8 10 0 6
-34 67 -75 136 -41 69 -75 128 -75 130 0 3 -8 17 -19 32 -27 40 -55 86 -56 92
-1 11 -60 105 -67 108 -4 2 -8 8 -8 13 0 4 -56 104 -125 220 -69 116 -125 212
-125 214 0 2 -37 65 -83 142 -46 76 -87 145 -90 153 -4 8 -16 29 -27 45 -11
17 -30 48 -42 70 -12 22 -27 47 -33 56 -5 9 -18 31 -29 49 -10 18 -74 127
-142 242 -68 116 -124 214 -124 219 0 5 -4 9 -10 9 -5 0 -10 4 -10 10 0 9
-126 228 -147 256 -4 5 -13 19 -19 30 -36 66 -119 210 -124 214 -3 3 -11 16
-18 29 -8 13 -22 38 -32 55 -10 17 -33 58 -52 91 -32 55 -146 250 -168 285 -8
13 -176 299 -200 340 -5 8 -30 51 -56 95 -26 44 -52 89 -58 100 -6 11 -50 85
-97 165 -48 80 -96 161 -107 180 -22 40 -139 237 -153 260 -10 16 -91 155
-119 205 -9 17 -52 88 -94 158 -42 71 -76 132 -76 138 0 5 -4 9 -10 9 -5 0
-10 6 -10 14 0 7 -7 19 -15 26 -8 7 -12 16 -9 21 3 5 0 9 -5 9 -6 0 -11 5 -11
10 0 9 -32 65 -78 136 -6 10 -15 26 -19 34 -3 8 -14 26 -23 40 -10 14 -28 43
-40 65 -34 61 -172 295 -174 295 0 0 -1 -422 -1 -937z"/>
<path d="M1979 2230 c-21 -4 -108 -54 -254 -144 -61 -38 -79 -48 -130 -79 -74
-44 -410 -247 -425 -257 -8 -5 -32 -20 -54 -32 -21 -13 -46 -28 -55 -33 -9 -6
-61 -37 -116 -70 -55 -33 -102 -62 -105 -65 -3 -3 -15 -11 -27 -17 -47 -27
-67 -38 -77 -46 -6 -4 -88 -53 -182 -110 -94 -56 -172 -106 -175 -111 -2 -6
1196 -10 3019 -10 1662 -1 3022 2 3022 5 0 3 -21 18 -47 33 -27 14 -70 40 -98
56 -27 17 -59 35 -70 40 -11 6 -33 19 -50 29 -16 11 -52 32 -80 47 -27 14 -61
34 -75 44 -14 9 -32 20 -40 24 -8 4 -24 12 -35 19 -11 7 -65 38 -120 70 -55
32 -107 62 -115 68 -29 18 -444 259 -530 307 -25 14 -73 43 -108 64 -34 21
-64 38 -66 38 -2 0 -45 25 -95 55 -51 30 -96 55 -101 55 -4 0 -10 5 -12 12 -3
9 -325 12 -1389 12 -762 1 -1396 -1 -1410 -4z"/>
</g>
</svg>
